# This file uses centimeters as units for non-parametric coordinates.

mtllib tinker.mtl
g default
v -9.000000 5.365663 0.000000
v 1.000000 45.730659 0.000000
v -0.172000 45.666659 0.000000
v -9.000000 33.777459 5.000000
v -1.188000 45.472659 0.000000
v 1.000000 1.738656 0.000000
v -9.000000 49.857659 5.000000
v -0.172000 1.681657 0.000000
v -9.000000 49.857659 0.000000
v -9.000000 -9.142341 5.000000
v -9.000000 -9.142341 0.000000
v 1.000000 -5.515342 0.000000
v 1.000000 -5.515342 5.000000
v -1.188000 1.512658 0.000000
v -2.047000 45.150659 0.000000
v 1.000000 -9.142341 5.000000
v 1.000000 -9.142341 0.000000
v -2.047000 1.228662 0.000000
v -2.750000 44.698659 0.000000
v 1.000000 1.738656 5.000000
v -2.750000 0.831658 0.000000
v -3.688000 43.409658 0.000000
v -2.047000 38.056661 0.000000
v -3.922000 42.570661 0.000000
v -1.188000 37.734658 0.000000
v -2.047000 -5.005340 0.000000
v -1.188000 -5.288344 0.000000
v -3.297000 44.118661 0.000000
v 1.000000 49.857659 0.000000
v -0.172000 37.540658 0.000000
v -4.000000 41.603658 0.000000
v -3.297000 0.321656 0.000000
v -0.172000 -5.458342 0.000000
v -3.688000 -0.301337 0.000000
v -3.922000 -1.038344 0.000000
v -4.000000 -1.888343 0.000000
v -3.922000 40.636659 0.000000
v -3.922000 -2.738341 0.000000
v -3.688000 -3.474341 0.000000
v -3.688000 39.798661 0.000000
v -3.297000 -4.098342 0.000000
v -2.750000 -4.608344 0.000000
v 1.000000 49.857659 5.000000
v -3.297000 39.088658 0.000000
v 1.000000 37.476659 0.000000
v 1.000000 37.476659 5.000000
v -2.750000 38.508660 0.000000
v -3.922000 42.570661 5.000000
v -3.688000 43.409658 5.000000
v 1.000000 45.730659 5.000000
v -4.000000 41.603658 5.000000
v -3.922000 40.636659 5.000000
v -3.688000 39.798661 5.000000
v -3.297000 39.088658 5.000000
v -2.750000 38.508660 5.000000
v -0.172000 37.540658 5.000000
v -2.047000 38.056661 5.000000
v -0.172000 45.666659 5.000000
v -1.188000 45.472659 5.000000
v -0.172000 -5.458342 5.000000
v -2.047000 45.150659 5.000000
v -2.047000 -5.005340 5.000000
v -2.750000 -4.608344 5.000000
v -2.750000 44.698659 5.000000
v -0.172000 1.681657 5.000000
v -1.188000 37.734658 5.000000
v -1.188000 1.512658 5.000000
v -2.047000 1.228662 5.000000
v -3.297000 44.118661 5.000000
v -2.750000 0.831658 5.000000
v -3.922000 -1.038344 5.000000
v -1.188000 -5.288344 5.000000
v -3.688000 -0.301337 5.000000
v -4.000000 -1.888343 5.000000
v -3.922000 -2.738341 5.000000
v -3.297000 0.321656 5.000000
v -3.688000 -3.474341 5.000000
v -3.297000 -4.098342 5.000000
vn -1.000000 0.000000 0.000000
vn -1.000000 0.000000 0.000000
vn -1.000000 0.000000 0.000000
vn -1.000000 0.000000 0.000000
vn -1.000000 0.000000 0.000000
vn -1.000000 0.000000 0.000000
vn 0.000000 0.000000 -1.000000
vn 0.000000 0.000000 -1.000000
vn 0.000000 0.000000 -1.000000
vn 0.000000 0.000000 -1.000000
vn 0.000000 0.000000 -1.000000
vn 0.000000 0.000000 -1.000000
vn -1.000000 0.000000 0.000000
vn -1.000000 0.000000 0.000000
vn -1.000000 0.000000 0.000000
vn -1.000000 0.000000 0.000000
vn -1.000000 0.000000 0.000000
vn -1.000000 0.000000 0.000000
vn 0.000000 0.000000 -1.000000
vn 0.000000 0.000000 -1.000000
vn 0.000000 0.000000 -1.000000
vn 0.000000 -1.000000 0.000000
vn 0.000000 -1.000000 0.000000
vn 0.000000 -1.000000 0.000000
vn 0.000000 -1.000000 0.000000
vn 0.000000 -1.000000 0.000000
vn 0.000000 -1.000000 0.000000
vn 0.000000 0.000000 -1.000000
vn 0.000000 0.000000 -1.000000
vn 0.000000 0.000000 -1.000000
vn 0.000000 0.000000 -1.000000
vn 0.000000 0.000000 -1.000000
vn 0.000000 0.000000 -1.000000
vn 0.000000 0.000000 -1.000000
vn 0.000000 0.000000 -1.000000
vn 0.000000 0.000000 -1.000000
vn 0.000000 0.000000 -1.000000
vn 0.000000 0.000000 -1.000000
vn 0.000000 0.000000 -1.000000
vn 0.000000 0.000000 -1.000000
vn 0.000000 0.000000 -1.000000
vn 0.000000 0.000000 -1.000000
vn 0.000000 0.000000 -1.000000
vn 0.000000 0.000000 -1.000000
vn 0.000000 0.000000 -1.000000
vn 0.000000 0.000000 -1.000000
vn 0.000000 0.000000 -1.000000
vn 0.000000 0.000000 -1.000000
vn 0.000000 0.000000 -1.000000
vn 0.000000 0.000000 -1.000000
vn 0.000000 0.000000 -1.000000
vn 0.000000 0.000000 -1.000000
vn 0.000000 0.000000 -1.000000
vn 0.000000 0.000000 -1.000000
vn 0.000000 0.000000 -1.000000
vn 0.000000 0.000000 -1.000000
vn 0.000000 0.000000 -1.000000
vn 0.000000 0.000000 -1.000000
vn 0.000000 0.000000 -1.000000
vn 0.000000 0.000000 -1.000000
vn 1.000000 0.000000 0.000000
vn 1.000000 0.000000 0.000000
vn 1.000000 0.000000 0.000000
vn 0.000000 0.000000 -1.000000
vn 0.000000 0.000000 -1.000000
vn 0.000000 0.000000 -1.000000
vn 0.000000 0.000000 -1.000000
vn 0.000000 0.000000 -1.000000
vn 0.000000 0.000000 -1.000000
vn 0.000000 0.000000 -1.000000
vn 0.000000 0.000000 -1.000000
vn 0.000000 0.000000 -1.000000
vn 0.000000 0.000000 -1.000000
vn 0.000000 0.000000 -1.000000
vn 0.000000 0.000000 -1.000000
vn 0.000000 0.000000 -1.000000
vn 0.000000 0.000000 -1.000000
vn 0.000000 0.000000 -1.000000
vn 0.000000 0.000000 -1.000000
vn 0.000000 0.000000 -1.000000
vn 0.000000 0.000000 -1.000000
vn 0.000000 0.000000 -1.000000
vn 0.000000 0.000000 -1.000000
vn 0.000000 0.000000 -1.000000
vn 0.000000 0.000000 -1.000000
vn 0.000000 0.000000 -1.000000
vn 0.000000 0.000000 -1.000000
vn 0.000000 0.000000 -1.000000
vn 0.000000 0.000000 -1.000000
vn 0.000000 0.000000 -1.000000
vn 1.000000 0.000000 0.000000
vn 1.000000 0.000000 0.000000
vn 1.000000 0.000000 0.000000
vn 1.000000 0.000000 0.000000
vn 1.000000 0.000000 0.000000
vn 1.000000 0.000000 0.000000
vn 0.000000 0.000000 -1.000000
vn 0.000000 0.000000 -1.000000
vn 0.000000 0.000000 -1.000000
vn 0.000000 0.000000 -1.000000
vn 0.000000 0.000000 -1.000000
vn 0.000000 0.000000 -1.000000
vn 0.000000 0.000000 -1.000000
vn 0.000000 0.000000 -1.000000
vn 0.000000 0.000000 -1.000000
vn 0.000000 0.000000 -1.000000
vn 0.000000 0.000000 -1.000000
vn 0.000000 0.000000 -1.000000
vn 0.000000 0.000000 -1.000000
vn 0.000000 0.000000 -1.000000
vn 0.000000 0.000000 -1.000000
vn 0.000000 0.000000 -1.000000
vn 0.000000 0.000000 -1.000000
vn 0.000000 0.000000 -1.000000
vn 0.000000 0.000000 -1.000000
vn 0.000000 0.000000 -1.000000
vn 0.000000 0.000000 -1.000000
vn 0.000000 0.000000 -1.000000
vn 0.000000 0.000000 -1.000000
vn 0.000000 0.000000 -1.000000
vn 0.000000 0.000000 -1.000000
vn 0.000000 0.000000 -1.000000
vn 0.000000 0.000000 -1.000000
vn 0.000000 1.000000 0.000000
vn 0.000000 1.000000 0.000000
vn 0.000000 1.000000 0.000000
vn 0.000000 1.000000 0.000000
vn 0.000000 1.000000 0.000000
vn 0.000000 1.000000 0.000000
vn 0.000000 0.000000 -1.000000
vn 0.000000 0.000000 -1.000000
vn 0.000000 0.000000 -1.000000
vn 0.000000 0.000000 -1.000000
vn 0.000000 0.000000 -1.000000
vn 0.000000 0.000000 -1.000000
vn 0.000000 0.000000 -1.000000
vn 0.000000 0.000000 -1.000000
vn 0.000000 0.000000 -1.000000
vn 1.000000 0.000000 0.000000
vn 1.000000 0.000000 0.000000
vn 1.000000 0.000000 0.000000
vn 0.000000 0.000000 -1.000000
vn 0.000000 0.000000 -1.000000
vn 0.000000 0.000000 -1.000000
vn 0.000000 0.000000 -1.000000
vn 0.000000 0.000000 -1.000000
vn 0.000000 0.000000 -1.000000
vn 1.000000 0.000000 0.000000
vn 1.000000 0.000000 0.000000
vn 1.000000 0.000000 0.000000
vn 1.000000 0.000000 0.000000
vn 1.000000 0.000000 0.000000
vn 1.000000 0.000000 0.000000
vn 0.000000 0.000000 1.000000
vn 0.000000 0.000000 1.000000
vn 0.000000 0.000000 1.000000
vn 0.000000 0.000000 1.000000
vn 0.000000 0.000000 1.000000
vn 0.000000 0.000000 1.000000
vn 0.000000 0.000000 1.000000
vn 0.000000 0.000000 1.000000
vn 0.000000 0.000000 1.000000
vn 0.000000 0.000000 1.000000
vn 0.000000 0.000000 1.000000
vn 0.000000 0.000000 1.000000
vn 0.054526 0.998512 0.000000
vn 0.054526 0.998512 0.000000
vn 0.054526 0.998512 0.000000
vn 0.054526 0.998512 0.000000
vn 0.054526 0.998512 0.000000
vn 0.054526 0.998512 0.000000
vn 0.540818 0.841140 0.000000
vn 0.540818 0.841140 0.000000
vn 0.540818 0.841140 0.000000
vn 0.540818 0.841140 0.000000
vn 0.540818 0.841140 0.000000
vn 0.540818 0.841140 0.000000
vn 0.000000 0.000000 1.000000
vn 0.000000 0.000000 1.000000
vn 0.000000 0.000000 1.000000
vn 0.048577 0.998819 0.000000
vn 0.048577 0.998819 0.000000
vn 0.048577 0.998820 0.000000
vn 0.048577 0.998819 0.000000
vn 0.048577 0.998819 0.000000
vn 0.048577 0.998819 0.000000
vn 0.054526 -0.998512 0.000000
vn 0.054526 -0.998512 0.000000
vn 0.054526 -0.998512 0.000000
vn 0.054526 -0.998512 0.000000
vn 0.054526 -0.998512 0.000000
vn 0.054526 -0.998512 0.000000
vn 0.000000 0.000000 1.000000
vn 0.000000 0.000000 1.000000
vn 0.000000 0.000000 1.000000
vn 0.187557 -0.982254 0.000000
vn 0.187557 -0.982254 0.000000
vn 0.187557 -0.982254 0.000000
vn 0.187557 -0.982254 0.000000
vn 0.187557 -0.982254 0.000000
vn 0.187557 -0.982254 0.000000
vn 0.491727 0.870750 0.000000
vn 0.491727 0.870750 0.000000
vn 0.491727 0.870750 0.000000
vn 0.491726 0.870750 0.000000
vn 0.491726 0.870750 0.000000
vn 0.491726 0.870750 0.000000
vn 0.000000 0.000000 1.000000
vn 0.000000 0.000000 1.000000
vn 0.000000 0.000000 1.000000
vn 0.351004 -0.936374 0.000000
vn 0.351004 -0.936374 0.000000
vn 0.351004 -0.936374 0.000000
vn 0.351004 -0.936374 0.000000
vn 0.351004 -0.936374 0.000000
vn 0.351004 -0.936374 0.000000
vn 0.540818 -0.841140 0.000000
vn 0.540818 -0.841140 0.000000
vn 0.540818 -0.841140 0.000000
vn 0.540818 -0.841140 0.000000
vn 0.540818 -0.841140 0.000000
vn 0.540818 -0.841140 0.000000
vn 0.000000 0.000000 1.000000
vn 0.000000 0.000000 1.000000
vn 0.000000 0.000000 1.000000
vn 0.048577 -0.998819 0.000000
vn 0.048577 -0.998819 0.000000
vn 0.048577 -0.998819 0.000000
vn 0.048577 -0.998820 0.000000
vn 0.048577 -0.998819 0.000000
vn 0.048577 -0.998819 0.000000
vn 0.351006 0.936373 0.000000
vn 0.351006 0.936373 0.000000
vn 0.351006 0.936373 0.000000
vn 0.351006 0.936373 0.000000
vn 0.351006 0.936373 0.000000
vn 0.351006 0.936373 0.000000
vn 0.727499 -0.686109 0.000000
vn 0.727499 -0.686109 0.000000
vn 0.727499 -0.686109 0.000000
vn 0.727499 -0.686109 0.000000
vn 0.727499 -0.686109 0.000000
vn 0.727499 -0.686109 0.000000
vn 0.000000 0.000000 1.000000
vn 0.000000 0.000000 1.000000
vn 0.000000 0.000000 1.000000
vn 0.000000 0.000000 1.000000
vn 0.000000 0.000000 1.000000
vn 0.000000 0.000000 1.000000
vn -0.000000 0.000000 1.000000
vn -0.000000 0.000000 1.000000
vn -0.000000 0.000000 1.000000
vn 0.164083 -0.986447 0.000000
vn 0.164083 -0.986447 0.000000
vn 0.164083 -0.986447 0.000000
vn 0.164083 -0.986447 0.000000
vn 0.164083 -0.986447 0.000000
vn 0.164083 -0.986447 0.000000
vn 0.187557 0.982254 0.000000
vn 0.187557 0.982254 0.000000
vn 0.187557 0.982254 0.000000
vn 0.187557 0.982254 0.000000
vn 0.187557 0.982254 0.000000
vn 0.187557 0.982254 0.000000
vn 0.000000 0.000000 1.000000
vn 0.000000 0.000000 1.000000
vn 0.000000 0.000000 1.000000
vn 0.875669 -0.482913 0.000000
vn 0.875669 -0.482913 0.000000
vn 0.875669 -0.482913 0.000000
vn 0.875669 -0.482912 0.000000
vn 0.875669 -0.482912 0.000000
vn 0.875669 -0.482912 0.000000
vn -0.000001 0.000000 1.000000
vn -0.000001 0.000000 1.000000
vn -0.000001 0.000000 1.000000
vn -0.000000 0.000000 1.000000
vn -0.000000 0.000000 1.000000
vn -0.000000 0.000000 1.000000
vn 0.000000 0.000000 1.000000
vn 0.000000 0.000000 1.000000
vn 0.000000 0.000000 1.000000
vn 0.000001 0.000000 1.000000
vn 0.000001 0.000000 1.000000
vn 0.000001 0.000000 1.000000
vn 0.313902 -0.949455 0.000000
vn 0.313902 -0.949455 0.000000
vn 0.313902 -0.949455 0.000000
vn 0.313902 -0.949455 0.000000
vn 0.313902 -0.949455 0.000000
vn 0.313902 -0.949455 0.000000
vn 0.000000 0.000000 1.000000
vn 0.000000 0.000000 1.000000
vn 0.000000 0.000000 1.000000
vn 0.000000 0.000000 1.000000
vn 0.000000 0.000000 1.000000
vn 0.000000 0.000000 1.000000
vn 0.000000 0.000000 1.000000
vn 0.000000 0.000000 1.000000
vn 0.000000 0.000000 1.000000
vn 0.000000 0.000000 1.000000
vn 0.000000 0.000000 1.000000
vn 0.000000 0.000000 1.000000
vn 0.000000 0.000000 1.000000
vn 0.000000 0.000000 1.000000
vn 0.000000 0.000000 1.000000
vn 0.000000 0.000000 1.000000
vn 0.000000 0.000000 1.000000
vn 0.000000 0.000000 1.000000
vn 0.000000 0.000000 1.000000
vn 0.000000 0.000000 1.000000
vn 0.000000 0.000000 1.000000
vn 0.491734 -0.870746 0.000000
vn 0.491734 -0.870746 0.000000
vn 0.491734 -0.870746 0.000000
vn 0.491734 -0.870746 0.000000
vn 0.491734 -0.870746 0.000000
vn 0.491734 -0.870746 0.000000
vn 0.000000 0.000000 1.000000
vn 0.000000 0.000000 1.000000
vn 0.000000 0.000000 1.000000
vn 0.000000 0.000000 1.000000
vn 0.000000 0.000000 1.000000
vn 0.000000 0.000000 1.000000
vn 0.000000 0.000000 1.000000
vn 0.000000 0.000000 1.000000
vn 0.000000 0.000000 1.000000
vn 0.000000 0.000000 1.000000
vn 0.000000 0.000000 1.000000
vn 0.000000 0.000000 1.000000
vn 0.963237 -0.268652 0.000000
vn 0.963237 -0.268652 0.000000
vn 0.963237 -0.268652 0.000000
vn 0.963238 -0.268651 0.000000
vn 0.963238 -0.268651 0.000000
vn 0.963238 -0.268651 0.000000
vn 0.000000 0.000000 1.000000
vn 0.000000 0.000000 1.000000
vn 0.000000 0.000000 1.000000
vn 0.312914 0.949782 0.000000
vn 0.312914 0.949782 0.000000
vn 0.312914 0.949782 0.000000
vn 0.312914 0.949782 0.000000
vn 0.312914 0.949782 0.000000
vn 0.312914 0.949782 0.000000
vn 0.000000 0.000000 1.000000
vn 0.000000 0.000000 1.000000
vn 0.000000 0.000000 1.000000
vn 0.000000 0.000000 1.000000
vn 0.000000 0.000000 1.000000
vn 0.000000 0.000000 1.000000
vn 0.000000 0.000000 1.000000
vn 0.000000 0.000000 1.000000
vn 0.000000 0.000000 1.000000
vn 0.000000 0.000000 1.000000
vn 0.000000 0.000000 1.000000
vn 0.000000 0.000000 1.000000
vn 0.996763 -0.080400 0.000000
vn 0.996763 -0.080400 0.000000
vn 0.996763 -0.080400 0.000000
vn 0.996763 -0.080400 0.000000
vn 0.996763 -0.080400 0.000000
vn 0.996763 -0.080400 0.000000
vn 0.681939 -0.731409 0.000000
vn 0.681938 -0.731410 0.000000
vn 0.681939 -0.731410 0.000000
vn 0.681939 -0.731410 0.000000
vn 0.681939 -0.731409 0.000000
vn 0.681938 -0.731410 0.000000
vn 0.000000 0.000000 1.000000
vn 0.000000 0.000000 1.000000
vn 0.000000 0.000000 1.000000
vn 0.000000 0.000000 1.000000
vn 0.000000 0.000000 1.000000
vn 0.000000 0.000000 1.000000
vn 0.000000 0.000000 1.000000
vn 0.000000 0.000000 1.000000
vn 0.000000 0.000000 1.000000
vn 0.000000 0.000000 1.000000
vn 0.000000 0.000000 1.000000
vn 0.000000 0.000000 1.000000
vn 0.000000 0.000000 1.000000
vn 0.000000 0.000000 1.000000
vn 0.000000 0.000000 1.000000
vn 0.165027 0.986289 0.000000
vn 0.165027 0.986289 0.000000
vn 0.165027 0.986289 0.000000
vn 0.165027 0.986289 0.000000
vn 0.165027 0.986289 0.000000
vn 0.165027 0.986289 0.000000
vn 0.996763 0.080401 0.000000
vn 0.996763 0.080401 0.000000
vn 0.996763 0.080401 0.000000
vn 0.996763 0.080401 0.000000
vn 0.996763 0.080401 0.000000
vn 0.996763 0.080401 0.000000
vn 0.953113 -0.302614 0.000000
vn 0.953113 -0.302614 0.000000
vn 0.953113 -0.302614 0.000000
vn 0.953113 -0.302613 0.000000
vn 0.953113 -0.302613 0.000000
vn 0.953113 -0.302613 0.000000
vn 0.847001 -0.531591 0.000000
vn 0.847001 -0.531591 0.000000
vn 0.847001 -0.531591 0.000000
vn 0.847002 -0.531590 0.000000
vn 0.847002 -0.531590 0.000000
vn 0.847002 -0.531590 0.000000
vn 0.963154 0.268949 0.000000
vn 0.963154 0.268949 0.000000
vn 0.963154 0.268949 0.000000
vn 0.963155 0.268948 0.000000
vn 0.963155 0.268948 0.000000
vn 0.963155 0.268948 0.000000
vn 0.995816 -0.091381 0.000000
vn 0.995816 -0.091381 0.000000
vn 0.995816 -0.091381 0.000000
vn 0.995816 -0.091381 0.000000
vn 0.995816 -0.091381 0.000000
vn 0.995816 -0.091381 0.000000
vn 0.875956 0.482391 0.000000
vn 0.875956 0.482391 0.000000
vn 0.875956 0.482391 0.000000
vn 0.875956 0.482390 0.000000
vn 0.875956 0.482390 0.000000
vn 0.875956 0.482390 0.000000
vn 0.995816 0.091381 0.000000
vn 0.995816 0.091381 0.000000
vn 0.995816 0.091381 0.000000
vn 0.995816 0.091381 0.000000
vn 0.995816 0.091381 0.000000
vn 0.995816 0.091381 0.000000
vn 0.727499 0.686109 0.000000
vn 0.727499 0.686109 0.000000
vn 0.727499 0.686109 0.000000
vn 0.727499 0.686109 0.000000
vn 0.727499 0.686109 0.000000
vn 0.727499 0.686109 0.000000
vn 0.952994 0.302990 0.000000
vn 0.952994 0.302990 0.000000
vn 0.952994 0.302990 0.000000
vn 0.952994 0.302989 0.000000
vn 0.952994 0.302989 0.000000
vn 0.952994 0.302989 0.000000
vn 0.847387 0.530975 0.000000
vn 0.847387 0.530975 0.000000
vn 0.847387 0.530975 0.000000
vn 0.847388 0.530974 0.000000
vn 0.847388 0.530974 0.000000
vn 0.847388 0.530974 0.000000
vn 0.681939 0.731409 0.000000
vn 0.681938 0.731410 0.000000
vn 0.681939 0.731410 0.000000
vn 0.681939 0.731410 0.000000
vn 0.681939 0.731409 0.000000
vn 0.681938 0.731410 0.000000
s off
g tinker:group_0_15308428
usemtl initialShadingGroup
f 7//1 9//2 4//3
f 1//4 4//5 9//6
f 5//7 29//8 3//9
f 2//10 3//11 29//12
f 4//13 1//14 10//15
f 11//16 10//17 1//18
f 14//19 45//20 8//21
f 16//22 10//23 11//24
f 16//25 11//26 17//27
f 15//28 9//29 5//30
f 1//31 45//32 18//33
f 19//34 9//35 15//36
f 21//37 1//38 18//39
f 25//40 1//41 23//42
f 27//43 11//44 26//45
f 28//46 9//47 19//48
f 32//49 1//50 21//51
f 6//52 8//53 45//54
f 45//55 1//56 30//57
f 25//58 30//59 1//60
f 45//61 20//62 6//63
f 29//64 5//65 9//66
f 9//67 28//68 22//69
f 9//70 22//71 24//72
f 31//73 37//74 9//75
f 1//76 9//77 37//78
f 24//79 31//80 9//81
f 33//82 17//83 27//84
f 12//85 17//86 33//87
f 11//88 27//89 17//90
f 16//91 17//92 13//93
f 12//94 13//95 17//96
f 14//97 18//98 45//99
f 1//100 32//101 34//102
f 1//103 34//104 35//105
f 36//106 1//107 35//108
f 41//109 11//110 39//111
f 39//112 11//113 38//114
f 42//115 11//116 41//117
f 38//118 11//119 36//120
f 40//121 1//122 37//123
f 43//124 29//125 9//126
f 43//127 9//128 7//129
f 26//130 11//131 42//132
f 1//133 36//134 11//135
f 47//136 1//137 44//138
f 29//139 43//140 2//141
f 23//142 1//143 47//144
f 40//145 44//146 1//147
f 50//148 2//149 43//150
f 46//151 20//152 45//153
f 51//154 4//155 52//156
f 53//157 52//158 4//159
f 54//160 53//161 4//162
f 55//163 54//164 4//165
f 45//166 30//167 56//168
f 45//169 56//170 46//171
f 23//172 47//173 55//174
f 23//175 55//176 57//177
f 50//178 43//179 58//180
f 12//181 33//182 60//183
f 12//184 60//185 13//186
f 3//187 2//188 50//189
f 3//190 50//191 58//192
f 59//193 58//194 43//195
f 5//196 3//197 58//198
f 5//199 58//200 59//201
f 26//202 42//203 63//204
f 26//205 63//206 62//207
f 43//208 7//209 59//210
f 15//211 5//212 59//213
f 15//214 59//215 61//216
f 19//217 15//218 61//219
f 19//220 61//221 64//222
f 57//223 55//224 4//225
f 8//226 6//227 20//228
f 8//229 20//230 65//231
f 25//232 23//233 57//234
f 25//235 57//236 66//237
f 28//238 19//239 64//240
f 28//241 64//242 69//243
f 64//244 61//245 7//246
f 61//247 59//248 7//249
f 20//250 46//251 65//252
f 14//253 8//254 65//255
f 14//256 65//257 67//258
f 56//259 30//260 25//261
f 56//262 25//263 66//264
f 67//265 65//266 4//267
f 49//268 22//269 28//270
f 49//271 28//272 69//273
f 66//274 57//275 65//276
f 4//277 65//278 57//279
f 66//280 65//281 56//282
f 56//283 65//284 46//285
f 18//286 14//287 67//288
f 18//289 67//290 68//291
f 63//292 78//293 10//294
f 62//295 63//296 10//297
f 7//298 4//299 51//300
f 7//301 51//302 48//303
f 7//304 48//305 49//306
f 7//307 49//308 69//309
f 69//310 64//311 7//312
f 21//313 18//314 68//315
f 21//316 68//317 70//318
f 70//319 68//320 4//321
f 68//322 67//323 4//324
f 74//325 10//326 75//327
f 77//328 75//329 10//330
f 49//331 48//332 24//333
f 49//334 24//335 22//336
f 78//337 77//338 10//339
f 27//340 26//341 62//342
f 27//343 62//344 72//345
f 10//346 16//347 72//348
f 72//349 62//350 10//351
f 60//352 72//353 16//354
f 13//355 60//356 16//357
f 24//358 48//359 51//360
f 24//361 51//362 31//363
f 32//364 21//365 70//366
f 32//367 70//368 76//369
f 74//370 71//371 10//372
f 4//373 10//374 71//375
f 4//376 71//377 73//378
f 4//379 73//380 76//381
f 76//382 70//383 4//384
f 60//385 33//386 27//387
f 60//388 27//389 72//390
f 31//391 51//392 52//393
f 31//394 52//395 37//396
f 73//397 71//398 35//399
f 73//400 35//401 34//402
f 73//403 34//404 32//405
f 73//406 32//407 76//408
f 37//409 52//410 53//411
f 37//412 53//413 40//414
f 35//415 71//416 74//417
f 35//418 74//419 36//420
f 40//421 53//422 54//423
f 40//424 54//425 44//426
f 36//427 74//428 75//429
f 36//430 75//431 38//432
f 44//433 54//434 55//435
f 44//436 55//437 47//438
f 38//439 75//440 77//441
f 38//442 77//443 39//444
f 39//445 77//446 78//447
f 39//448 78//449 41//450
f 42//451 41//452 78//453
f 42//454 78//455 63//456
